# xmcd
#
# Track frame offsets:
#	150
#	15305
#	30300
#	45832
#	58102
#	72535
#	89236
#	99899
#	113791
#	129650
#	141597
#	155061
#	169055
#
# Disc length: 2413 seconds
#
# Revision: 0
# Processed by: cddbd v1.4PL0 Copyright (c) Steve Scherf et al.
# Submitted via: EasyCDDAExtractor 4.6.9.1
#
DISCID=af096b0d
DTITLE=Kenny Baker - Spider Bit The Baby!
DYEAR=2002
DGENRE=Bluegrass
TTITLE0=Spider Bit The Baby
TTITLE1=Ashland Breakdown
TTITLE2=Brandywine
TTITLE3=Chuck-a-Luck
TTITLE4=Friday Night Waltz
TTITLE5=High Country
TTITLE6=Jug City
TTITLE7=Lonesome Moonlight Waltz
TTITLE8=Springtime
TTITLE9=Sugar Tree Stomp
TTITLE10=Windy City
TTITLE11=Mississippi Waltz
TTITLE12=Tune For Andy
EXTD=
EXTT0=
EXTT1=
EXTT2=
EXTT3=
EXTT4=
EXTT5=
EXTT6=
EXTT7=
EXTT8=
EXTT9=
EXTT10=
EXTT11=
EXTT12=
PLAYORDER=
